Coordinates
version=1
nRows=11
nColumns=40
inDegrees=yes

Units are S.I. units (second, meters, Newtons, ...)
If the header above contains a line with 'inDegrees', this indicates whether rotational values are in degrees (yes) or radians (no).

endheader
time	pelvis_tilt	pelvis_list	pelvis_rotation	pelvis_tx	pelvis_ty	pelvis_tz	hip_flexion_r	hip_adduction_r	hip_rotation_r	knee_angle_r	knee_angle_r_beta	ankle_angle_r	subtalar_angle_r	mtp_angle_r	hip_flexion_l	hip_adduction_l	hip_rotation_l	knee_angle_l	knee_angle_l_beta	ankle_angle_l	subtalar_angle_l	mtp_angle_l	lumbar_extension	lumbar_bending	lumbar_rotation	arm_flex_r	arm_add_r	arm_rot_r	elbow_flex_r	pro_sup_r	wrist_flex_r	wrist_dev_r	arm_flex_l	arm_add_l	arm_rot_l	elbow_flex_l	pro_sup_l	wrist_flex_l	wrist_dev_l
      0.16000000	     12.24512533	     -3.76308598	      3.63391808	     -0.02421862	      0.93448074	     -0.22853722	      9.09889989	      6.59221016	     -6.80239923	     19.23319406	      0.33568256	      0.88564966	      0.00000000	      0.00000000	    -15.79048749	     -4.77644636	     -3.26251270	     48.63343862	      0.84881363	    -12.57439652	      0.00000000	      0.00000000	    -30.42647951	      6.99633504	     -0.40682525	     -2.95297434	     -3.94605887	      9.30688074	     16.65767822	     89.19031359	    -22.96856553	     -7.96984030	      7.54516043	     -8.17396952	      3.24663993	     59.88657596	     89.32785263	      5.45013845	     12.63844749
      0.17000000	     12.42215373	     -4.01707649	      3.57016680	     -0.01053143	      0.93637142	     -0.22738486	      8.13202172	      7.05250325	     -6.40447909	     19.40274571	      0.33864180	      1.38646024	      0.00000000	      0.00000000	    -14.42858451	     -5.46093655	     -3.26492064	     51.22398790	      0.89402724	    -13.44593288	      0.00000000	      0.00000000	    -30.61665227	      7.09481912	     -0.19202724	     -2.48172058	     -3.97161205	      9.48495712	     17.27326415	     89.18943718	    -23.05906324	     -8.07712620	      7.02996043	     -8.13244374	      3.54033005	     58.89039539	     89.33049500	      5.50660847	     12.86650692
      0.18000000	     12.57792653	     -4.19619826	      3.56405828	      0.00278175	      0.93828732	     -0.22644558	      7.11963134	      7.42865219	     -5.96445047	     19.43138099	      0.33914158	      2.02256751	      0.00000000	      0.00000000	    -12.94567566	     -5.95266043	     -2.90306475	     53.67731972	      0.93684596	    -13.52799600	      0.00000000	      0.00000000	    -30.83435540	      7.15504678	      0.00914831	     -1.97771530	     -3.99470420	      9.56397959	     17.95598883	     89.19322405	    -23.10290546	     -8.26071094	      6.59644827	     -8.10613285	      4.00295617	     57.81144714	     89.33852005	      5.57476973	     13.12444703
      0.19000000	     12.59144913	     -4.32672014	      3.65147762	      0.01574857	      0.93997221	     -0.22571029	      6.23490302	      7.71563243	     -5.77002924	     19.37307961	      0.33812403	      2.68986185	      0.00000000	      0.00000000	    -11.21512067	     -6.31023008	     -2.29407713	     56.00907363	      0.97754275	    -12.78712558	      0.00000000	      0.00000000	    -30.88702972	      7.19132294	      0.22960721	     -1.51172189	     -3.99612810	      9.38382478	     18.72505056	     89.19788587	    -23.19243675	     -8.51302385	      6.32215775	     -8.05718579	      4.69974973	     56.52741850	     89.34391264	      5.68364061	     13.48441551
      0.20000000	     12.52547582	     -4.37630089	      3.79155525	      0.02838631	      0.94159774	     -0.22500447	      5.41644666	      7.90970270	     -5.66132681	     19.27133220	      0.33634820	      3.27416470	      0.00000000	      0.00000000	     -9.32142443	     -6.47418952	     -1.44881214	     58.12742887	      1.01451502	    -11.60304499	      0.00000000	      0.00000000	    -30.90449454	      7.16419310	      0.63489894	     -1.21042536	     -3.95718539	      8.57869610	     19.77601582	     89.21066012	    -23.30732958	     -8.87988683	      6.30341618	     -8.02561669	      5.79415254	     55.00487134	     89.35109482	      5.87094908	     13.95799522
      0.21000000	     12.76723328	     -4.24527758	      3.67302618	      0.04101764	      0.94387655	     -0.22414200	      4.10786027	      7.98187993	     -5.03268963	     18.91414158	      0.33011405	      3.97904861	      0.00000000	      0.00000000	     -7.90821816	     -6.32200769	     -0.81654090	     59.74456234	      1.04273932	    -10.21991791	      0.00000000	      0.00000000	    -31.31075721	      6.86588464	      0.74496040	     -0.54638906	     -3.96461863	      8.60673055	     20.63342336	     89.21229454	    -23.25890550	     -9.08560781	      5.85094362	     -8.03514093	      6.30453994	     53.93818618	     89.36799644	      5.93877168	     14.20307785
      0.22000000	     12.57264652	     -4.27102691	      3.88517046	      0.05329570	      0.94524539	     -0.22368482	      3.37965688	      8.11138921	     -5.22300364	     18.69615389	      0.32630944	      4.62333837	      0.00000000	      0.00000000	     -5.82000411	     -6.32818886	      0.11394432	     61.40053825	      1.07164155	     -8.15162840	      0.00000000	      0.00000000	    -31.19364602	      6.83050970	      1.11977054	     -0.21502252	     -3.91806927	      7.69458486	     21.76657702	     89.22460559	    -23.34837632	     -9.38510423	      5.89616450	     -8.00795044	      7.61454733	     52.33092846	     89.38105002	      6.16955804	     14.82862387
      0.23000000	     12.56943997	     -4.12505528	      3.87407698	      0.06557877	      0.94704769	     -0.22296665	      2.32804303	      8.12299188	     -4.91848675	     18.29296080	      0.31927240	      5.21645567	      0.00000000	      0.00000000	     -4.08859241	     -6.04716720	      0.85973138	     62.53715235	      1.09147921	     -6.18184949	      0.00000000	      0.00000000	    -31.33471371	      6.53346745	      1.51484311	      0.17470138	     -3.88180660	      6.86811138	     23.00725840	     89.23420209	    -23.31679773	     -9.63112047	      5.81521707	     -8.00986602	      8.77537184	     50.87548876	     89.39406622	      6.36527881	     15.33515934
      0.24000000	     12.62516495	     -3.85430614	      3.72641679	      0.07789319	      0.94904815	     -0.22219451	      1.12135804	      8.01503126	     -4.34730522	     17.73325766	      0.30950373	      5.63216553	      0.00000000	      0.00000000	     -2.52855329	     -5.58988857	      1.41505623	     63.22749002	      1.10352788	     -4.45486632	      0.00000000	      0.00000000	    -31.54734271	      6.07915852	      1.52116960	      0.89648217	     -3.84446081	      6.79383961	     23.97415918	     89.23183791	    -23.28454400	     -9.78986946	      5.31657818	     -8.02817295	      9.30123364	     49.74654754	     89.41085279	      6.42807313	     15.60948354
      0.25000000	     12.41639553	     -3.76041140	      3.74429953	      0.09008014	      0.95033756	     -0.22153195	      0.28065440	      8.04953117	     -4.25658151	     17.28539642	      0.30168708	      6.07677075	      0.00000000	      0.00000000	     -0.60149666	     -5.28262681	      2.15464656	     63.82018586	      1.11387237	     -2.44635600	      0.00000000	      0.00000000	    -31.44379642	      5.79240480	      2.47951836	      0.84408579	     -3.77890174	      4.86391678	     25.71273191	     89.24467896	    -23.22934684	     -9.97648932	      5.72830328	     -7.98235561	     11.38374498	     47.82762407	     89.41256716	      6.75735670	     16.47739867
      0.26000000	     12.43696198	     -3.55752706	      3.57397352	      0.10232757	      0.95202766	     -0.22071730	     -0.85149722	      7.97991502	     -3.89332441	     16.78372233	      0.29293122	      6.48755218	      0.00000000	      0.00000000	      0.90023010	     -4.92861612	      2.44657831	     63.91366424	      1.11550388	     -0.64744327	      0.00000000	      0.00000000	    -31.56794896	      5.37440805	      2.58425579	      1.55764320	     -3.72051919	      4.69788315	     26.69162134	     89.24782892	    -23.12511142	    -10.03676884	      5.25390468	     -8.00265103	     12.04799695	     46.63507556	     89.42987302	      6.79905793	     16.75791987
